<svg xmlns="http://www.w3.org/2000/svg" viewBox="0 0 64 64">
  <polyline points="19.68,32.11 18.33,27.61 19.69,26.48 22.19,29.80 23.20,33.70 22.12,35.30 19.60,32.70 17.86,27.13 19.48,25.65 22.54,29.65 23.79,34.27 22.63,36.42 19.68,33.77 17.30,26.85 19.04,24.51 22.83,29.21 24.52,34.73 23.46,37.77 20.16,35.66 16.76,27.33 18.15,22.93 22.91,28.12 25.40,34.78 24.77,39.16 21.48,38.74 16.75,30.04 16.39,21.12 22.19,25.63 26.25,33.73 26.65,39.88 24.24,42.56 19.00,37.64 14.23,22.75 18.79,20.13 26.07,29.80 28.78,38.16 28.47,44.18 25.95,47.33 20.10,43.28 12.50,23.36 17.08,15.82 27.59,28.26 31.92,37.61 33.49,44.19 35.42,48.48 39.80,48.45 48.23,34.73 51.02,12.76 39.00,22.51 31.45,33.83 28.78,41.03 26.25,45.12 21.28,43.20 14.09,27.70 15.55,16.04 25.35,26.30 30.24,36.15 31.47,43.33 31.76,48.74 31.98,52.82 32.48,55.87 33.89,57.92 37.91,57.42 48.03,42.81 55.02,6.12 37.54,19.65 26.86,30.52 23.24,34.11 20.63,33.40 18.49,29.04 18.87,26.05 21.44,28.30 23.21,32.57 22.83,35.35 20.58,34.37 18.07,29.03 18.43,25.13 21.60,27.82 23.77,32.89 23.45,36.33 20.93,35.70 17.74,29.49 17.76,24.02 21.60,26.95 24.41,32.96 24.35,37.37 21.74,37.68 17.70,31.12 16.68,22.94 21.14,25.30 25.05,32.42 25.62,38.13 23.36,40.29 18.69,35.22 15.27,23.24 19.43,22.11 25.26,30.38 27.23,37.79 26.11,42.56 22.20,42.38 15.87,31.28 14.83,17.86 22.97,24.36 28.39,34.23 29.58,41.63 28.69,46.90 25.71,49.23 18.93,42.97 11.27,19.15 18.89,16.52 29.56,29.80 33.52,38.42 35.67,43.96 39.32,45.43 46.11,36.64 50.38,17.57 42.06,20.87 34.41,32.17 31.97,40.39 31.35,46.51 30.90,51.11 29.88,54.43 27.15,55.92 19.99,49.97 8.98,18.83 17.95,12.38 32.40,28.10 37.61,34.86 40.65,36.79 44.27,32.85 46.30,25.27 43.51,24.62 39.58,30.42 38.35,36.02 39.93,38.63 43.75,35.31 47.08,25.66 44.59,22.63 39.43,29.14 37.26,36.04 38.24,40.35 41.94,39.49 47.13,29.33 47.02,20.02 40.38,25.89 36.22,34.50 35.83,40.95 38.10,44.23 43.41,40.41 49.56,24.04 45.75,18.03 37.08,28.51 33.45,37.58 32.94,44.29 33.80,49.17 36.35,51.77 42.63,47.60 52.25,23.18 46.91,12.80 33.76,27.63 28.50,36.44 25.72,41.20 21.54,40.43 15.84,29.49 15.87,19.10 23.17,25.62 27.67,34.70 28.27,41.51 26.41,45.61 21.60,44.02 14.16,28.65 15.05,15.46 25.22,25.75 30.48,35.82 31.94,43.08 32.64,48.48 33.88,52.32 37.07,53.73 44.85,45.77 53.99,15.13 43.04,15.73 30.89,29.86 26.52,36.83 23.39,39.26 18.90,34.75 15.75,24.02 19.35,22.64 24.71,30.17 26.57,37.21 25.32,41.50 21.30,40.35 15.63,28.91 16.05,19.00 23.47,25.98 27.82,35.03 28.33,41.78 26.42,45.82 21.54,44.11 14.03,28.40 15.10,15.34 25.39,25.87 30.63,35.93 32.12,43.15 32.95,48.49 34.56,52.11 38.65,52.35 47.69,39.25 53.04,10.44 39.14,20.44 29.78,32.35 26.32,38.53 22.96,40.12 17.95,33.69 15.35,21.94 20.43,23.08 25.83,31.60 27.28,38.71 25.80,43.02 21.46,41.79 15.10,28.95 15.58,17.61 24.05,25.77 28.80,35.36 29.66,42.49 28.61,47.52 25.40,49.46 18.23,41.97 11.05,17.25 19.96,17.49 30.20,30.59 33.89,38.88 36.16,44.02 40.20,44.55 47.16,33.71 49.65,16.65 40.66,22.80 34.09,33.54 32.21,41.38 31.94,47.26 32.16,51.69 32.86,54.97 34.81,56.93 40.21,54.59 51.66,31.60 51.05,6.80 33.67,24.31 26.15,32.73 23.03,35.61 19.94,33.52 17.65,27.38 19.04,24.95 22.48,29.04 24.13,34.20 23.19,37.04 20.15,35.05 17.11,27.57 18.35,23.63 22.63,28.24 24.91,34.42 24.23,38.35 21.04,37.48 16.86,29.16 17.05,21.99 22.30,26.48 25.75,33.92 25.79,39.39 23.03,40.89 17.88,34.20 15.00,21.47 20.41,22.64 26.17,31.60 27.79,39.00 26.51,43.76 22.46,43.64 15.63,31.86 14.29,16.77 23.24,23.96 29.12,34.27 30.62,41.87 30.46,47.55 29.27,51.58 26.06,53.06 18.34,45.09 9.54,15.33 20.25,16.06 32.08,30.05 36.35,37.25 39.43,40.08 44.08,35.93 47.89,24.21 44.41,21.70 38.44,29.64 36.17,37.18 37.08,42.15 40.77,42.43 46.97,32.28 48.66,18.29 40.88,23.74 35.20,33.65 33.86,41.16 34.76,46.47 37.82,48.70 44.65,42.03 51.84,18.65 43.96,17.21 33.77,30.19 30.03,38.78 28.06,44.45 24.68,46.50 17.98,39.08 12.34,18.45 20.12,19.18 28.82,31.09 31.83,39.61 32.94,45.81 34.42,50.13 37.96,51.40 45.94,41.94 53.06,14.04 41.75,18.17 31.41,31.23 27.70,38.60 24.77,42.05 19.81,38.57 14.63,24.77 17.80,19.59 25.20,28.57 28.37,37.11 28.24,43.30 25.79,46.53 20.08,42.60 12.82,23.64 17.12,16.32 27.19,28.26 31.37,37.62 32.68,44.36 33.93,49.18 36.74,51.55 43.41,46.30 52.62,20.65 45.64,14.11 33.19,28.60 28.42,37.08 25.68,41.65 21.34,40.53 15.53,28.85 16.00,18.77 23.59,25.98 27.98,35.12 28.54,41.94 26.74,46.15 22.05,45.01 14.33,29.98 14.40,14.80 24.99,25.01 30.74,35.37 32.49,42.70 33.64,48.00 35.98,51.09 41.63,48.39 51.20,27.09 48.58,11.78 35.14,26.19 29.22,35.77 26.52,41.28 22.73,42.01 16.76,32.90 14.65,19.10 21.81,23.36 27.56,33.10 28.94,40.60 27.88,45.77 24.38,47.24 17.18,38.19 12.06,16.47 21.27,19.99 29.75,31.96 32.62,40.17 34.10,45.95 36.70,49.10 42.59,45.54 51.17,24.43 47.07,14.08 35.25,27.50 30.28,36.95 28.11,43.09 24.97,45.70 18.80,39.88 12.76,20.69 18.95,18.44 27.81,30.06 31.06,38.86 31.88,45.36 32.36,50.24 33.32,53.79 35.89,55.55 42.60,50.64 53.70,21.57 46.60,11.26 31.68,27.45 26.10,34.79 23.04,37.25 19.31,33.78 16.76,25.62 19.29,23.94 23.59,29.79 25.20,35.82 23.89,39.08 20.14,36.68 16.14,26.80 17.87,21.76 23.48,28.05 26.28,35.46 25.75,40.52 22.45,41.09 16.90,32.40 15.09,19.89 21.68,23.77 27.03,33.03 28.20,40.25 26.73,44.85 22.47,44.51 15.22,31.67 14.07,15.78 23.79,24.06 29.82,34.56 31.50,42.15 31.95,47.84 32.41,52.11 33.51,55.17 36.52,56.25 44.34,48.62 54.89,15.02 43.40,14.22 29.85,28.96 25.11,34.98 22.09,36.21 18.65,31.73 17.29,24.98 20.33,25.47 23.79,31.16 24.57,36.23 22.69,38.01 18.87,33.66 16.41,24.66 19.60,23.75 24.16,30.34 25.65,36.62 24.16,39.97 20.11,37.36 15.72,26.40 17.72,21.01 23.91,28.05 26.88,35.90 26.46,41.38 23.30,42.74 17.38,34.79 14.15,19.59 20.93,22.08 27.40,32.14 29.24,40.00 28.58,45.62 25.79,48.31 19.43,43.04 11.81,20.98 18.09,16.21 28.68,29.20 32.75,38.17 34.59,44.26 37.44,47.29 43.47,42.80 50.90,22.50 45.75,16.22 35.43,28.69 31.30,37.91 29.77,44.41 27.83,48.63 23.40,48.50 14.89,34.42 12.31,12.59 24.48,22.70 31.94,33.94 34.61,41.07 37.21,45.02 42.30,42.70 49.34,26.82 47.31,16.36 37.67,26.79 33.05,36.48 31.95,43.58 31.82,48.92 31.98,52.96 32.48,55.98 33.90,58.00 37.93,57.46 48.10,42.69 55.00,6.00 37.43,19.74 26.80,30.52 23.20,34.06 20.61,33.32 18.52,29.02 18.91,26.11 21.45,28.36 23.18,32.57 22.78,35.28 20.55,34.26 18.09,28.98 18.49,25.20 21.61,27.91 23.73,32.90 23.38,36.27 20.87,35.55 17.74,29.36 17.85,24.11 21.64,27.08 24.37,33.01 24.26,37.31 21.62,37.48 17.65,30.85 16.80,22.98 21.25,25.52 25.02,32.55 25.50,38.13 23.17,40.07 18.51,34.70 15.38,23.01 19.69,22.49 25.31,30.69 27.10,37.94 25.83,42.47 21.76,41.74 15.55,29.98 15.33,17.99 23.44,25.19 28.40,34.79 29.32,41.97 28.13,46.93 24.57,48.31 17.09,38.91 11.59,15.62 21.49,19.66 30.37,31.93 33.44,39.98 35.40,45.28 39.08,46.68 46.23,37.45 50.93,16.58 41.84,20.44 33.70,32.18 31.01,40.37 29.77,46.27 27.71,49.99 22.84,48.96 13.74,32.07 12.87,11.50 26.03,24.01 32.98,34.65 35.69,41.08 38.88,43.62 44.65,37.85 49.60,21.36 44.02,19.90 36.36,30.35 33.65,38.83 33.68,45.07 35.37,49.17 39.78,49.01 48.43,34.76 51.17,12.16 38.67,22.56 31.04,33.84 28.26,40.82 25.46,44.36 20.13,40.94 13.75,24.64 17.16,17.63 26.06,28.12 29.90,37.32 30.54,44.14 29.91,49.16 27.87,52.27 22.67,50.54 12.73,30.90 12.97,10.00 27.52,24.60 34.46,34.57 37.44,39.84 41.22,40.03 46.54,31.12 47.58,20.28 41.24,24.71 36.50,33.48 35.71,40.26 37.64,44.08 42.52,41.63 49.07,26.54 46.93,17.25 37.96,27.08 33.67,36.53 32.90,43.51 33.57,48.64 35.79,51.68 41.33,49.22 51.13,28.08 49.07,11.09 35.16,25.76 28.94,35.38 26.12,40.68 22.26,40.96 16.57,31.59 15.25,19.51 22.14,24.29 27.27,33.54 28.27,40.65 26.71,45.15" fill="none" stroke="#996b16" stroke-width="1" stroke-linejoin="round" stroke-linecap="round" />
</svg>
