<svg xmlns="http://www.w3.org/2000/svg" viewBox="0 0 1200 675" width="1200" height="675" font-family="Helvetica, Arial, sans-serif">
  <rect x="1" y="1" width="1198" height="673" rx="24" fill="#FFFFFF" stroke="#E6E4DE" stroke-width="2"/>

  <text x="56" y="70" fill="#9A6A4E" font-size="15" font-weight="700" letter-spacing="3">CHUNKING · ATOMICITY</text>
  <text x="56" y="112" fill="#1A1A1A" font-size="32" font-weight="700">Where you put the knife.</text>

  <!-- ============ LEFT: fixed-size cut ============ -->
  <g>
    <rect x="56" y="188" width="500" height="404" rx="16" fill="#FDF6F5" stroke="#F0C9C4" stroke-width="1.5"/>
    <text x="82" y="228" fill="#DC2626" font-size="19" font-weight="700">Fixed-size cut</text>
    <text x="82" y="250" fill="#9B6D6D" font-size="14">slices wherever the character count runs out</text>

    <!-- idea 1 (fine) -->
    <g fill="#CBD5E1"><rect x="82" y="278" width="448" height="12" rx="6"/><rect x="82" y="300" width="410" height="12" rx="6"/></g>
    <!-- the torn idea -->
    <rect x="74" y="326" width="464" height="86" rx="10" fill="#FEE2E2"/>
    <g fill="#F19B9B"><rect x="82" y="338" width="448" height="12" rx="6"/></g>
    <g fill="#F19B9B"><rect x="82" y="388" width="360" height="12" rx="6"/></g>
    <!-- cut line right through it -->
    <line x1="64" y1="369" x2="548" y2="369" stroke="#DC2626" stroke-width="2.5" stroke-dasharray="9 7"/>
    <path d="M548 369 l22 -9 v18 z" fill="#DC2626"/>
    <text x="306" y="363" text-anchor="middle" fill="#B91C1C" font-size="13" font-weight="700">— cut lands mid-thought —</text>
    <!-- idea 2 (fine) -->
    <g fill="#CBD5E1"><rect x="82" y="436" width="448" height="12" rx="6"/><rect x="82" y="458" width="300" height="12" rx="6"/></g>

    <text x="306" y="512" text-anchor="middle" fill="#B91C1C" font-size="15" font-weight="700">One idea, split across two chunks.</text>
    <text x="306" y="536" text-anchor="middle" fill="#9B6D6D" font-size="13">Neither half retrieves well on its own.</text>
  </g>

  <!-- ============ RIGHT: atomic cut ============ -->
  <g>
    <rect x="644" y="188" width="500" height="404" rx="16" fill="#F1FAF5" stroke="#B8E3CC" stroke-width="1.5"/>
    <text x="670" y="228" fill="#059669" font-size="19" font-weight="700">Atomic cut</text>
    <text x="670" y="250" fill="#5E8C77" font-size="14">falls on the boundary between ideas</text>

    <!-- idea A block -->
    <rect x="662" y="272" width="464" height="74" rx="10" fill="#DCF5E7"/>
    <g fill="#8FD3AF"><rect x="670" y="286" width="448" height="12" rx="6"/><rect x="670" y="308" width="448" height="12" rx="6"/><rect x="670" y="330" width="360" height="12" rx="6"/></g>
    <!-- clean cut in the gap -->
    <line x1="652" y1="362" x2="1136" y2="362" stroke="#059669" stroke-width="2.5" stroke-dasharray="9 7"/>
    <path d="M1136 362 l22 -9 v18 z" fill="#059669"/>
    <!-- idea B block -->
    <rect x="662" y="378" width="464" height="74" rx="10" fill="#DCF5E7"/>
    <g fill="#8FD3AF"><rect x="670" y="392" width="448" height="12" rx="6"/><rect x="670" y="414" width="448" height="12" rx="6"/><rect x="670" y="436" width="300" height="12" rx="6"/></g>

    <text x="894" y="512" text-anchor="middle" fill="#047857" font-size="15" font-weight="700">Each chunk is one self-contained idea.</text>
    <text x="894" y="536" text-anchor="middle" fill="#5E8C77" font-size="13">Nothing significant sits at the boundary.</text>
  </g>

  <text x="600" y="630" text-anchor="middle" fill="#9CA3AF" font-size="14" font-style="italic">Atomicity names the target. It doesn't tell you where to put the knife — that's the algorithm's job.</text>
</svg>
