<svg xmlns="http://www.w3.org/2000/svg" viewBox="0 0 1200 675" width="1200" height="675" font-family="Helvetica, Arial, sans-serif">
  <defs>
    <linearGradient id="bg" x1="0" y1="0" x2="1" y2="1">
      <stop offset="0" stop-color="#0D1019"/>
      <stop offset="0.55" stop-color="#111726"/>
      <stop offset="1" stop-color="#0F1A2E"/>
    </linearGradient>
    <radialGradient id="glow" cx="0.72" cy="0.1" r="0.7">
      <stop offset="0" stop-color="#5B8DEF" stop-opacity="0.5"/>
      <stop offset="0.5" stop-color="#3C63C4" stop-opacity="0.15"/>
      <stop offset="1" stop-color="#3C63C4" stop-opacity="0"/>
    </radialGradient>
    <linearGradient id="beam" x1="0" y1="0" x2="0" y2="1">
      <stop offset="0" stop-color="#8FB4FF" stop-opacity="0.22"/>
      <stop offset="1" stop-color="#8FB4FF" stop-opacity="0"/>
    </linearGradient>
    <filter id="grain"><feTurbulence type="fractalNoise" baseFrequency="0.9" numOctaves="2" stitchTiles="stitch"/><feColorMatrix type="matrix" values="0 0 0 0 1  0 0 0 0 1  0 0 0 0 1  0 0 0 0.6 0"/></filter>
    <filter id="soft" x="-30%" y="-30%" width="160%" height="160%"><feGaussianBlur stdDeviation="10"/></filter>
  </defs>

  <rect width="1200" height="675" fill="url(#bg)"/>
  <rect width="1200" height="675" fill="url(#glow)"/>

  <!-- light beam -->
  <polygon points="900,-40 1240,470 560,470" fill="url(#beam)"/>

  <!-- grid of facts: lit inside the beam, one in shadow -->
  <g>
    <g fill="#6E98F0">
      <circle cx="810" cy="170" r="10"/><circle cx="900" cy="170" r="10"/><circle cx="990" cy="170" r="10"/>
      <circle cx="810" cy="260" r="10"/><circle cx="900" cy="260" r="10"/><circle cx="990" cy="260" r="10"/>
      <circle cx="900" cy="350" r="10"/><circle cx="990" cy="350" r="10"/>
    </g>
    <g fill="#3B4C6E">
      <circle cx="720" cy="170" r="10"/><circle cx="1080" cy="170" r="10"/>
      <circle cx="720" cy="260" r="10"/><circle cx="1080" cy="260" r="10"/><circle cx="1080" cy="350" r="10"/>
    </g>
    <!-- the invisible fact, in shadow -->
    <circle cx="720" cy="350" r="18" fill="none" stroke="#E2683A" stroke-width="2" opacity="0.65"/>
    <circle cx="720" cy="350" r="10" fill="#26170F"/>
  </g>

  <rect width="1200" height="675" fill="#000" opacity="0.26"/>
  <rect width="1200" height="675" filter="url(#grain)" opacity="0.05"/>

  <ellipse cx="600" cy="356" rx="560" ry="155" fill="#080B12" opacity="0.5" filter="url(#soft)"/>
  <text x="600" y="306" text-anchor="middle" fill="#7CA2F2" font-size="17" font-weight="700" letter-spacing="6">RAG · REVISITED &#160;·&#160; N&#186; 02</text>
  <text x="600" y="372" text-anchor="middle" fill="#EEF2FB" font-size="52" font-weight="700" letter-spacing="0.5">Indexed, or invisible.</text>
  <text x="600" y="410" text-anchor="middle" fill="#9DACC6" font-size="18">You can't retrieve what you didn't index.</text>
</svg>
