<svg xmlns="http://www.w3.org/2000/svg" viewBox="0 0 1200 675" width="1200" height="675" font-family="Helvetica, Arial, sans-serif">
  <defs>
    <linearGradient id="bg" x1="0" y1="0" x2="1" y2="1">
      <stop offset="0" stop-color="#0D1512"/>
      <stop offset="0.55" stop-color="#101B16"/>
      <stop offset="1" stop-color="#0E1F19"/>
    </linearGradient>
    <radialGradient id="glow" cx="0.24" cy="0.24" r="0.7">
      <stop offset="0" stop-color="#2DD59B" stop-opacity="0.4"/>
      <stop offset="0.5" stop-color="#1C9E73" stop-opacity="0.13"/>
      <stop offset="1" stop-color="#1C9E73" stop-opacity="0"/>
    </radialGradient>
    <filter id="grain"><feTurbulence type="fractalNoise" baseFrequency="0.9" numOctaves="2" stitchTiles="stitch"/><feColorMatrix type="matrix" values="0 0 0 0 1  0 0 0 0 1  0 0 0 0 1  0 0 0 0.6 0"/></filter>
    <filter id="soft" x="-30%" y="-30%" width="160%" height="160%"><feGaussianBlur stdDeviation="10"/></filter>
    <filter id="lglow" x="-50%" y="-50%" width="200%" height="200%"><feGaussianBlur stdDeviation="5"/></filter>
  </defs>

  <rect width="1200" height="675" fill="url(#bg)"/>
  <rect width="1200" height="675" fill="url(#glow)"/>

  <!-- measurement ruler strip -->
  <g stroke="#43C79A">
    <line x1="80" y1="560" x2="1120" y2="560" stroke-width="2.5" opacity="0.9"/>
    <g stroke-width="2" opacity="0.85">
      <!-- major ticks -->
      <line x1="120" y1="560" x2="120" y2="512"/><line x1="270" y1="560" x2="270" y2="512"/><line x1="420" y1="560" x2="420" y2="512"/>
      <line x1="570" y1="560" x2="570" y2="512"/><line x1="720" y1="560" x2="720" y2="512"/><line x1="870" y1="560" x2="870" y2="512"/>
      <line x1="1020" y1="560" x2="1020" y2="512"/>
    </g>
    <g stroke-width="1.5" opacity="0.5">
      <!-- minor ticks -->
      <line x1="150" y1="560" x2="150" y2="536"/><line x1="180" y1="560" x2="180" y2="536"/><line x1="210" y1="560" x2="210" y2="536"/><line x1="240" y1="560" x2="240" y2="536"/>
      <line x1="300" y1="560" x2="300" y2="536"/><line x1="330" y1="560" x2="330" y2="536"/><line x1="360" y1="560" x2="360" y2="536"/><line x1="390" y1="560" x2="390" y2="536"/>
      <line x1="450" y1="560" x2="450" y2="536"/><line x1="480" y1="560" x2="480" y2="536"/><line x1="510" y1="560" x2="510" y2="536"/><line x1="540" y1="560" x2="540" y2="536"/>
      <line x1="600" y1="560" x2="600" y2="536"/><line x1="630" y1="560" x2="630" y2="536"/><line x1="660" y1="560" x2="660" y2="536"/><line x1="690" y1="560" x2="690" y2="536"/>
      <line x1="750" y1="560" x2="750" y2="536"/><line x1="780" y1="560" x2="780" y2="536"/><line x1="810" y1="560" x2="810" y2="536"/><line x1="840" y1="560" x2="840" y2="536"/>
      <line x1="900" y1="560" x2="900" y2="536"/><line x1="930" y1="560" x2="930" y2="536"/><line x1="960" y1="560" x2="960" y2="536"/><line x1="990" y1="560" x2="990" y2="536"/>
    </g>
  </g>

  <!-- crosshair reticle -->
  <g stroke="#43C79A" fill="none">
    <g filter="url(#lglow)" opacity="0.5" stroke-width="4"><circle cx="930" cy="176" r="60"/></g>
    <circle cx="930" cy="176" r="60" stroke-width="2.5"/>
    <circle cx="930" cy="176" r="6" fill="#43C79A" stroke="none"/>
    <line x1="930" y1="96" x2="930" y2="140" stroke-width="2"/><line x1="930" y1="212" x2="930" y2="256" stroke-width="2"/>
    <line x1="850" y1="176" x2="894" y2="176" stroke-width="2"/><line x1="966" y1="176" x2="1010" y2="176" stroke-width="2"/>
  </g>

  <rect width="1200" height="675" fill="#000" opacity="0.26"/>
  <rect width="1200" height="675" filter="url(#grain)" opacity="0.05"/>

  <ellipse cx="580" cy="336" rx="560" ry="150" fill="#08110D" opacity="0.5" filter="url(#soft)"/>
  <text x="580" y="288" text-anchor="middle" fill="#5FD5AC" font-size="17" font-weight="700" letter-spacing="6">RAG · REVISITED &#160;·&#160; N&#186; 05</text>
  <text x="580" y="354" text-anchor="middle" fill="#EAF4EF" font-size="52" font-weight="700" letter-spacing="0.5">Rigor is the moat.</text>
  <text x="580" y="392" text-anchor="middle" fill="#A2B7AD" font-size="18">The idea is the easy part.</text>
</svg>
