<svg xmlns="http://www.w3.org/2000/svg" viewBox="0 0 1200 675" width="1200" height="675" font-family="Helvetica, Arial, sans-serif">
  <defs>
    <linearGradient id="bg" x1="0" y1="0" x2="1" y2="1">
      <stop offset="0" stop-color="#141118"/>
      <stop offset="0.55" stop-color="#1B1622"/>
      <stop offset="1" stop-color="#241A16"/>
    </linearGradient>
    <radialGradient id="glow" cx="0.78" cy="0.28" r="0.6">
      <stop offset="0" stop-color="#E0A43B" stop-opacity="0.55"/>
      <stop offset="0.45" stop-color="#C9812A" stop-opacity="0.18"/>
      <stop offset="1" stop-color="#C9812A" stop-opacity="0"/>
    </radialGradient>
    <filter id="grain"><feTurbulence type="fractalNoise" baseFrequency="0.9" numOctaves="2" stitchTiles="stitch"/><feColorMatrix type="matrix" values="0 0 0 0 1  0 0 0 0 1  0 0 0 0 1  0 0 0 0.6 0"/></filter>
    <filter id="soft" x="-30%" y="-30%" width="160%" height="160%"><feGaussianBlur stdDeviation="10"/></filter>
  </defs>

  <rect width="1200" height="675" fill="url(#bg)"/>
  <rect width="1200" height="675" fill="url(#glow)"/>

  <!-- motif: overlapping offset 'pages' receding = notes re-read in layers -->
  <g transform="rotate(-9 600 338)" opacity="0.9">
    <rect x="700" y="150" width="330" height="410" rx="14" fill="#E6D9C4" opacity="0.08"/>
    <rect x="735" y="178" width="330" height="410" rx="14" fill="#E7DAC6" opacity="0.12"/>
    <rect x="770" y="206" width="330" height="410" rx="14" fill="#F0E4D2" opacity="0.16" stroke="#E0A43B" stroke-opacity="0.35" stroke-width="1.5"/>
    <!-- faint ruled lines on the top page -->
    <g stroke="#E0A43B" stroke-opacity="0.30" stroke-width="2">
      <line x1="800" y1="250" x2="1005" y2="250"/><line x1="800" y1="284" x2="1005" y2="284"/>
      <line x1="800" y1="318" x2="960" y2="318"/><line x1="800" y1="352" x2="1005" y2="352"/>
      <line x1="800" y1="386" x2="905" y2="386"/>
    </g>
  </g>
  <!-- return-loop arrow (retrospection) -->
  <g stroke="#E0A43B" stroke-width="3" fill="none" stroke-linecap="round" opacity="0.85">
    <path d="M250 470 a95 95 0 1 1 40 78"/>
    <path d="M250 470 l-16 -30 M250 470 l-32 8"/>
  </g>

  <rect width="1200" height="675" fill="#000" opacity="0.28"/>
  <rect width="1200" height="675" filter="url(#grain)" opacity="0.05"/>

  <!-- text vignette -->
  <ellipse cx="600" cy="356" rx="560" ry="155" fill="#0B0910" opacity="0.5" filter="url(#soft)"/>

  <!-- text block, centered & crop-safe -->
  <text x="600" y="306" text-anchor="middle" fill="#E0A43B" font-size="17" font-weight="700" letter-spacing="6">RAG · REVISITED &#160;·&#160; N&#186; 00</text>
  <text x="600" y="372" text-anchor="middle" fill="#F6F1E9" font-size="52" font-weight="700" letter-spacing="0.5">Field notes, re-read.</text>
  <text x="600" y="410" text-anchor="middle" fill="#B7ADA0" font-size="18">Right instincts. Credit already taken.</text>
</svg>
