<svg xmlns="http://www.w3.org/2000/svg" viewBox="0 0 1200 675" width="1200" height="675" font-family="Georgia, serif">
  <defs>
    <marker id="pm-arrow" viewBox="0 0 10 10" refX="8" refY="5" markerWidth="7" markerHeight="7" orient="auto-start-reverse">
      <path d="M0,0 L10,5 L0,10 z" fill="#7a7365"/>
    </marker>
  </defs>
  <rect x="1" y="1" width="1198" height="673" rx="0" fill="#faf8f3" stroke="#c9c2b2" stroke-width="2"/>

  <!-- header -->
  <text x="56" y="70" fill="#7a7365" font-family="Menlo, monospace" font-size="12" font-weight="700" letter-spacing="3">RAG &#183; REVISITED</text>
  <text x="56" y="108" fill="#211f1b" font-size="30" font-weight="700">Follow a document through the pipeline &#8212;</text>
  <text x="56" y="146" fill="#211f1b" font-size="30" font-weight="700">each part breaks in its own way.</text>

  <!-- pipeline nodes -->
  <g>
    <!-- endpoints (soft) -->
    <rect x="30" y="320" width="160" height="74" rx="0" fill="#faf8f3" stroke="#c9c2b2" stroke-width="1.5"/>
    <text x="110" y="364" text-anchor="middle" fill="#5f594e" font-size="19" font-weight="600">Raw text</text>

    <rect x="980" y="320" width="160" height="74" rx="0" fill="#faf8f3" stroke="#c9c2b2" stroke-width="1.5"/>
    <text x="1060" y="364" text-anchor="middle" fill="#211f1b" font-size="19" font-weight="700">Answer</text>

    <!-- four breaking stages -->
    <rect x="220" y="320" width="160" height="74" rx="0" fill="#faf8f3" stroke="#211f1b" stroke-width="2"/>
    <text x="300" y="364" text-anchor="middle" fill="#211f1b" font-size="19" font-weight="700">Chunk</text>

    <rect x="410" y="320" width="160" height="74" rx="0" fill="#faf8f3" stroke="#211f1b" stroke-width="2"/>
    <text x="490" y="364" text-anchor="middle" fill="#211f1b" font-size="19" font-weight="700">Represent</text>

    <rect x="600" y="320" width="160" height="74" rx="0" fill="#faf8f3" stroke="#211f1b" stroke-width="2"/>
    <text x="680" y="364" text-anchor="middle" fill="#211f1b" font-size="19" font-weight="700">Score</text>

    <rect x="790" y="320" width="160" height="74" rx="0" fill="#faf8f3" stroke="#211f1b" stroke-width="2"/>
    <text x="870" y="358" text-anchor="middle" fill="#211f1b" font-size="18" font-weight="700">Query /</text>
    <text x="870" y="379" text-anchor="middle" fill="#211f1b" font-size="18" font-weight="700">Route</text>
  </g>

  <!-- connectors -->
  <g stroke="#7a7365" stroke-width="2" marker-end="url(#pm-arrow)">
    <line x1="190" y1="357" x2="214" y2="357"/>
    <line x1="380" y1="357" x2="404" y2="357"/>
    <line x1="570" y1="357" x2="594" y2="357"/>
    <line x1="760" y1="357" x2="784" y2="357"/>
    <line x1="950" y1="357" x2="974" y2="357"/>
  </g>

  <!-- fracture tags above the four stages -->
  <g font-size="16">
    <!-- crack ticks -->
    <g stroke="#8a3b2e" stroke-width="2.5" fill="none" stroke-linecap="round" stroke-linejoin="round">
      <path d="M300 316 l-5 -9 l9 -7 l-5 -10"/>
      <path d="M490 316 l-5 -9 l9 -7 l-5 -10"/>
      <path d="M680 316 l-5 -9 l9 -7 l-5 -10"/>
      <path d="M870 316 l-5 -9 l9 -7 l-5 -10"/>
    </g>
    <g fill="#8a3b2e" font-weight="700" text-anchor="middle">
      <text x="300" y="248">1 &#183; Atomicity</text>
      <text x="490" y="248">2 &#183; Coverage</text>
      <text x="680" y="248">3 &#183; Contrast</text>
      <text x="870" y="248">4 &#183; Routing</text>
    </g>
    <g fill="#7a7365" font-family="Menlo, monospace" font-size="12" letter-spacing="0.3" text-anchor="middle">
      <text x="300" y="270">where to cut</text>
      <text x="490" y="270">what you index by</text>
      <text x="680" y="270">everything = 0.8</text>
      <text x="870" y="270">match the question</text>
    </g>
  </g>

  <!-- evaluation lens spanning everything -->
  <path d="M30 452 v14 h1110 v-14" fill="none" stroke="#996b16" stroke-width="2"/>
  <line x1="585" y1="466" x2="585" y2="486" stroke="#996b16" stroke-width="2"/>
  <rect x="345" y="486" width="480" height="60" rx="0" fill="#faf8f3" stroke="#996b16" stroke-width="2"/>
  <text x="585" y="513" text-anchor="middle" fill="#996b16" font-size="18" font-weight="700">5 &#183; How would you actually know?</text>
  <text x="585" y="534" text-anchor="middle" fill="#5f594e" font-family="Menlo, monospace" font-size="12.5" letter-spacing="0.3">The evaluation gap &#8212; read this one last</text>
</svg>
