<svg xmlns="http://www.w3.org/2000/svg" viewBox="0 0 1200 675" width="1200" height="675" font-family="Helvetica, Arial, sans-serif">
  <defs>
    <linearGradient id="bgA" x1="0" y1="0" x2="1" y2="1">
      <stop offset="0" stop-color="#160F10"/>
      <stop offset="0.55" stop-color="#1E1416"/>
      <stop offset="1" stop-color="#25151A"/>
    </linearGradient>
    <radialGradient id="glowA" cx="0.28" cy="0.72" r="0.6">
      <stop offset="0" stop-color="#E23A45" stop-opacity="0.5"/>
      <stop offset="0.45" stop-color="#B83038" stop-opacity="0.16"/>
      <stop offset="1" stop-color="#B83038" stop-opacity="0"/>
    </radialGradient>
    <linearGradient id="cut" x1="0" y1="0" x2="1" y2="1">
      <stop offset="0" stop-color="#FF6B6B"/>
      <stop offset="0.5" stop-color="#FF3B47"/>
      <stop offset="1" stop-color="#E23A45"/>
    </linearGradient>
    <filter id="grainA"><feTurbulence type="fractalNoise" baseFrequency="0.9" numOctaves="2" stitchTiles="stitch"/><feColorMatrix type="matrix" values="0 0 0 0 1  0 0 0 0 1  0 0 0 0 1  0 0 0 0.6 0"/></filter>
    <filter id="glowline" x="-50%" y="-50%" width="200%" height="200%"><feGaussianBlur stdDeviation="7"/></filter>
  </defs>

  <rect width="1200" height="675" fill="url(#bgA)"/>
  <rect width="1200" height="675" fill="url(#glowA)"/>

  <!-- two halves, sheared apart along the diagonal cut = 'where you put the knife' -->
  <g opacity="0.5">
    <!-- upper-right block of 'text' bars -->
    <g transform="translate(18,-12)" fill="#E9C9CC">
      <g opacity="0.22">
        <rect x="720" y="150" width="300" height="12" rx="6"/><rect x="720" y="180" width="360" height="12" rx="6"/>
        <rect x="720" y="210" width="250" height="12" rx="6"/><rect x="720" y="240" width="330" height="12" rx="6"/>
      </g>
    </g>
    <!-- lower-left block, offset the other way -->
    <g transform="translate(-18,12)" fill="#E9C9CC">
      <g opacity="0.22">
        <rect x="150" y="430" width="330" height="12" rx="6"/><rect x="150" y="460" width="250" height="12" rx="6"/>
        <rect x="150" y="490" width="360" height="12" rx="6"/><rect x="150" y="520" width="290" height="12" rx="6"/>
      </g>
    </g>
  </g>

  <!-- the cut: one clean luminous diagonal -->
  <line x1="120" y1="655" x2="1080" y2="20" stroke="url(#cut)" stroke-width="10" stroke-linecap="round" filter="url(#glowline)" opacity="0.7"/>
  <line x1="120" y1="655" x2="1080" y2="20" stroke="url(#cut)" stroke-width="3.5" stroke-linecap="round"/>
  <!-- tick marks along the blade -->
  <g stroke="#FF8A8A" stroke-width="2" opacity="0.7">
    <line x1="360" y1="480" x2="384" y2="464"/><line x1="600" y1="322" x2="624" y2="306"/><line x1="840" y1="164" x2="864" y2="148"/>
  </g>

  <rect width="1200" height="675" fill="#000" opacity="0.30"/>
  <rect width="1200" height="675" filter="url(#grainA)" opacity="0.05"/>

  <ellipse cx="600" cy="356" rx="560" ry="155" fill="#0C0709" opacity="0.55" filter="url(#glowline)"/>

  <text x="600" y="306" text-anchor="middle" fill="#FF6B6B" font-size="17" font-weight="700" letter-spacing="6">RAG · REVISITED &#160;·&#160; N&#186; 01</text>
  <text x="600" y="372" text-anchor="middle" fill="#F7ECEC" font-size="52" font-weight="700" letter-spacing="0.5">Where you put the knife.</text>
  <text x="600" y="410" text-anchor="middle" fill="#C4A9AC" font-size="18">Atomicity is a target, not an algorithm.</text>
</svg>
