<svg xmlns="http://www.w3.org/2000/svg" viewBox="0 0 1200 675" width="1200" height="675" font-family="Helvetica, Arial, sans-serif">
  <defs>
    <linearGradient id="bg" x1="0" y1="0" x2="1" y2="1">
      <stop offset="0" stop-color="#131518"/>
      <stop offset="0.55" stop-color="#171A1D"/>
      <stop offset="1" stop-color="#151A1B"/>
    </linearGradient>
    <radialGradient id="glow" cx="0.5" cy="0.5" r="0.7">
      <stop offset="0" stop-color="#5FA79C" stop-opacity="0.16"/>
      <stop offset="1" stop-color="#5FA79C" stop-opacity="0"/>
    </radialGradient>
    <linearGradient id="haze" x1="0" y1="0" x2="0" y2="1">
      <stop offset="0" stop-color="#AEB8B6" stop-opacity="0"/>
      <stop offset="0.55" stop-color="#AEB8B6" stop-opacity="0.10"/>
      <stop offset="1" stop-color="#AEB8B6" stop-opacity="0"/>
    </linearGradient>
    <filter id="grain"><feTurbulence type="fractalNoise" baseFrequency="0.9" numOctaves="2" stitchTiles="stitch"/><feColorMatrix type="matrix" values="0 0 0 0 1  0 0 0 0 1  0 0 0 0 1  0 0 0 0.6 0"/></filter>
    <filter id="soft" x="-30%" y="-30%" width="160%" height="160%"><feGaussianBlur stdDeviation="10"/></filter>
    <filter id="mist" x="-20%" y="-20%" width="140%" height="140%"><feGaussianBlur stdDeviation="4"/></filter>
  </defs>

  <rect width="1200" height="675" fill="url(#bg)"/>
  <rect width="1200" height="675" fill="url(#glow)"/>

  <!-- a dense field of near-identical bars, one barely distinct -->
  <g filter="url(#mist)" fill="#3A4144">
    <g>
      <rect x="70" y="360" width="20" height="235" rx="4"/><rect x="104" y="352" width="20" height="243" rx="4"/>
      <rect x="138" y="366" width="20" height="229" rx="4"/><rect x="172" y="356" width="20" height="239" rx="4"/>
      <rect x="206" y="362" width="20" height="233" rx="4"/><rect x="240" y="350" width="20" height="245" rx="4"/>
      <rect x="274" y="364" width="20" height="231" rx="4"/><rect x="308" y="356" width="20" height="239" rx="4"/>
      <rect x="342" y="360" width="20" height="235" rx="4"/><rect x="376" y="352" width="20" height="243" rx="4"/>
      <rect x="410" y="366" width="20" height="229" rx="4"/><rect x="444" y="358" width="20" height="237" rx="4"/>
      <rect x="478" y="362" width="20" height="233" rx="4"/><rect x="512" y="354" width="20" height="241" rx="4"/>
      <rect x="546" y="360" width="20" height="235" rx="4"/><rect x="580" y="356" width="20" height="239" rx="4"/>
      <rect x="614" y="364" width="20" height="231" rx="4"/><rect x="648" y="352" width="20" height="243" rx="4"/>
      <rect x="682" y="360" width="20" height="235" rx="4"/><rect x="716" y="358" width="20" height="237" rx="4"/>
      <rect x="750" y="362" width="20" height="233" rx="4"/><rect x="784" y="354" width="20" height="241" rx="4"/>
      <rect x="818" y="360" width="20" height="235" rx="4"/><rect x="852" y="356" width="20" height="239" rx="4"/>
      <rect x="886" y="364" width="20" height="231" rx="4"/><rect x="920" y="352" width="20" height="243" rx="4"/>
      <rect x="954" y="360" width="20" height="235" rx="4"/><rect x="988" y="358" width="20" height="237" rx="4"/>
      <rect x="1022" y="362" width="20" height="233" rx="4"/><rect x="1056" y="356" width="20" height="239" rx="4"/>
      <rect x="1090" y="360" width="20" height="235" rx="4"/>
    </g>
  </g>
  <!-- the one that's barely ahead -->
  <rect x="682" y="330" width="20" height="265" rx="4" fill="#63B3A6"/>

  <rect width="1200" height="675" fill="url(#haze)"/>
  <rect width="1200" height="675" fill="#000" opacity="0.24"/>
  <rect width="1200" height="675" filter="url(#grain)" opacity="0.05"/>

  <ellipse cx="600" cy="326" rx="560" ry="150" fill="#0D0F11" opacity="0.5" filter="url(#soft)"/>
  <text x="600" y="278" text-anchor="middle" fill="#7FC1B5" font-size="17" font-weight="700" letter-spacing="6">RAG · REVISITED &#160;·&#160; N&#186; 03</text>
  <text x="600" y="344" text-anchor="middle" fill="#EDF1F0" font-size="52" font-weight="700" letter-spacing="0.5">Everything scores 0.8.</text>
  <text x="600" y="382" text-anchor="middle" fill="#A6B0AE" font-size="18">In one domain, an embedder loses contrast.</text>
</svg>
