<svg xmlns="http://www.w3.org/2000/svg" viewBox="0 0 1200 675" width="1200" height="675" font-family="Helvetica, Arial, sans-serif">
  <defs>
    <linearGradient id="bg" x1="0" y1="0" x2="1" y2="1">
      <stop offset="0" stop-color="#120E1A"/>
      <stop offset="0.55" stop-color="#171025"/>
      <stop offset="1" stop-color="#1C1030"/>
    </linearGradient>
    <radialGradient id="glow" cx="0.78" cy="0.4" r="0.7">
      <stop offset="0" stop-color="#9A6BF5" stop-opacity="0.5"/>
      <stop offset="0.5" stop-color="#6D3FC4" stop-opacity="0.15"/>
      <stop offset="1" stop-color="#6D3FC4" stop-opacity="0"/>
    </radialGradient>
    <filter id="grain"><feTurbulence type="fractalNoise" baseFrequency="0.9" numOctaves="2" stitchTiles="stitch"/><feColorMatrix type="matrix" values="0 0 0 0 1  0 0 0 0 1  0 0 0 0 1  0 0 0 0.6 0"/></filter>
    <filter id="soft" x="-30%" y="-30%" width="160%" height="160%"><feGaussianBlur stdDeviation="10"/></filter>
    <filter id="lglow" x="-50%" y="-50%" width="200%" height="200%"><feGaussianBlur stdDeviation="6"/></filter>
  </defs>

  <rect width="1200" height="675" fill="url(#bg)"/>
  <rect width="1200" height="675" fill="url(#glow)"/>

  <!-- the junction: one rail in, two paths out -->
  <g fill="none" stroke-linecap="round">
    <g filter="url(#lglow)" opacity="0.55" stroke="#B79BF7" stroke-width="7">
      <path d="M60 338 H820"/>
      <path d="M820 338 C960 338 1000 190 1140 176"/>
      <path d="M820 338 C960 338 1000 486 1140 500"/>
    </g>
    <g stroke="#C9B6FA" stroke-width="3">
      <path d="M60 338 H820"/>
      <path d="M820 338 C960 338 1000 190 1140 176"/>
      <path d="M820 338 C960 338 1000 486 1140 500"/>
    </g>
  </g>
  <!-- rungs along the two branches -->
  <g stroke="#8B6BE0" stroke-width="2.5" opacity="0.7" stroke-linecap="round">
    <line x1="946" y1="252" x2="978" y2="268"/><line x1="1010" y1="212" x2="1040" y2="230"/><line x1="1074" y1="188" x2="1104" y2="204"/>
    <line x1="946" y1="424" x2="978" y2="408"/><line x1="1010" y1="464" x2="1040" y2="446"/><line x1="1074" y1="488" x2="1104" y2="472"/>
  </g>
  <!-- switch node -->
  <circle cx="820" cy="338" r="13" fill="#1C1030" stroke="#C9B6FA" stroke-width="3"/>
  <circle cx="820" cy="338" r="4" fill="#C9B6FA"/>

  <rect width="1200" height="675" fill="#000" opacity="0.26"/>
  <rect width="1200" height="675" filter="url(#grain)" opacity="0.05"/>

  <ellipse cx="580" cy="356" rx="540" ry="155" fill="#0E0A16" opacity="0.55" filter="url(#soft)"/>
  <text x="560" y="306" text-anchor="middle" fill="#B79BF7" font-size="17" font-weight="700" letter-spacing="6">RAG · REVISITED &#160;·&#160; N&#186; 04</text>
  <text x="560" y="372" text-anchor="middle" fill="#F1ECFB" font-size="52" font-weight="700" letter-spacing="0.5">Route by complexity.</text>
  <text x="560" y="410" text-anchor="middle" fill="#B0A4C8" font-size="18">Two strategies, opposite ends of the ladder.</text>
</svg>
